<?xml version="1.0" encoding="iso-8859-1"?>
<!-- Generator: Adobe Illustrator 19.0.0, SVG Export Plug-In . SVG Version: 6.00 Build 0)  -->
<svg version="1.1" id="Layer_1" xmlns="http://www.w3.org/2000/svg" xmlns:xlink="http://www.w3.org/1999/xlink" x="0px" y="0px"
	 viewBox="0 0 214.303 214.303" style="enable-background:new 0 0 214.303 214.303;" xml:space="preserve">
<g>
	<g>
		<g>
			<path d="M50.485,81.936l5.719,51.489c0.209,1.871,1.789,3.287,3.673,3.287h92.373c1.884,0,3.464-1.416,3.673-3.287l5.719-51.489
				c10.078-4.96,16.472-15.135,16.472-26.512c0-16.299-13.261-29.559-29.559-29.559c-0.909,0-1.819,0.041-2.724,0.125
				C139.838,10.538,124.683,0,107.911,0c-17.1,0-32.28,10.733-38.122,26.519c-2.031-0.435-4.11-0.655-6.217-0.655
				c-16.299,0-29.559,13.261-29.559,29.559C34.013,66.801,40.407,76.976,50.485,81.936z M63.572,33.254
				c2.548,0,5.044,0.426,7.412,1.268c0.971,0.347,2.046,0.27,2.955-0.211c0.913-0.478,1.584-1.317,1.851-2.313
				C79.68,17.509,92.89,7.39,107.911,7.39c14.606,0,27.716,9.768,31.879,23.752c0.545,1.839,2.407,2.955,4.283,2.565
				c1.465-0.299,2.973-0.453,4.482-0.453c12.225,0,22.169,9.944,22.169,22.169c0,9.102-5.456,17.179-13.899,20.576
				c-1.263,0.509-2.143,1.669-2.295,3.02l-5.589,50.302H63.186L57.597,79.02c-0.151-1.351-1.032-2.511-2.295-3.02
				c-8.443-3.397-13.899-11.474-13.899-20.576C41.403,43.199,51.347,33.254,63.572,33.254z"/>
			<path d="M56.183,59.119c2.042,0,3.695-1.655,3.695-3.695c0-4.075,3.316-7.39,7.39-7.39c2.042,0,3.695-1.655,3.695-3.695
				c0-2.04-1.653-3.695-3.695-3.695c-8.151,0-14.78,6.63-14.78,14.78C52.488,57.464,54.14,59.119,56.183,59.119z"/>
			<path d="M93.132,36.949c2.042,0,3.695-1.655,3.695-3.695c0-4.075,3.316-7.39,7.39-7.39c2.042,0,3.695-1.655,3.695-3.695
				s-1.653-3.695-3.695-3.695c-8.151,0-14.78,6.63-14.78,14.78C89.437,35.295,91.09,36.949,93.132,36.949z"/>
			<path d="M133.776,59.119c2.042,0,3.695-1.655,3.695-3.695c0-4.075,3.316-7.39,7.39-7.39c2.042,0,3.695-1.655,3.695-3.695
				c0-2.04-1.653-3.695-3.695-3.695c-8.151,0-14.78,6.63-14.78,14.78C130.081,57.464,131.734,59.119,133.776,59.119z"/>
			<path d="M78.352,157.034c0,5.093,4.142,9.237,9.237,9.237c5.095,0,9.237-4.144,9.237-9.237s-4.142-9.237-9.237-9.237
				C82.494,147.797,78.352,151.941,78.352,157.034z M89.437,157.034c0,1.019-0.83,1.847-1.847,1.847
				c-1.018,0-1.847-0.828-1.847-1.847s0.83-1.847,1.847-1.847C88.607,155.186,89.437,156.014,89.437,157.034z"/>
			<path d="M115.301,157.034c0,5.093,4.142,9.237,9.237,9.237c5.095,0,9.237-4.144,9.237-9.237s-4.142-9.237-9.237-9.237
				C119.443,147.797,115.301,151.941,115.301,157.034z M126.386,157.034c0,1.019-0.83,1.847-1.847,1.847
				c-1.017,0-1.847-0.828-1.847-1.847s0.83-1.847,1.847-1.847C125.556,155.187,126.386,156.014,126.386,157.034z"/>
			<path d="M178.902,180.504c-1.321-1.057-3.194-1.081-4.536-0.058c-5.546,4.2-16.595,7.368-25.706,7.368
				c-11.565,0-20.42-4.141-27.077-12.656c-0.7-0.897-1.775-1.42-2.912-1.42H93.269c-1.137,0-2.212,0.523-2.912,1.418
				c-6.845,8.754-15.025,12.658-26.525,12.658c-7.956,0-15.79-2.618-22.061-7.368c-1.346-1.021-3.219-0.998-4.536,0.058
				c-1.321,1.055-1.757,2.874-1.057,4.415c6.639,14.626,21.549,29.384,39.897,29.384c10.118,0,21.415-1.194,30.097-9.398
				c9.198,8.353,22.491,9.398,32.085,9.398c18.424,0,35.235-15.141,41.701-29.384C180.659,183.378,180.222,181.56,178.902,180.504z
				 M138.257,206.913c-14.545,0-23.84-3.092-29.256-9.732c-0.7-0.859-1.75-1.359-2.861-1.359s-2.162,0.5-2.861,1.359
				c-5.64,6.912-13.52,9.732-27.203,9.732c-10.323,0-19.572-6.166-26.113-13.952c4.449,1.472,9.143,2.242,13.87,2.242
				c12.979,0,23.201-4.608,31.194-14.076h21.892c7.927,9.342,18.601,14.076,31.742,14.076c5.048,0,11.493-0.895,17.594-2.782
				C159.103,200.525,148.721,206.913,138.257,206.913z"/>
		</g>
	</g>
</g>
<g>
</g>
<g>
</g>
<g>
</g>
<g>
</g>
<g>
</g>
<g>
</g>
<g>
</g>
<g>
</g>
<g>
</g>
<g>
</g>
<g>
</g>
<g>
</g>
<g>
</g>
<g>
</g>
<g>
</g>
</svg>
