<?xml version="1.0" encoding="iso-8859-1"?>
<!-- Generator: Adobe Illustrator 19.0.0, SVG Export Plug-In . SVG Version: 6.00 Build 0)  -->
<svg version="1.1" id="Layer_1" xmlns="http://www.w3.org/2000/svg" xmlns:xlink="http://www.w3.org/1999/xlink" x="0px" y="0px"
	 viewBox="0 0 501.995 501.995" style="enable-background:new 0 0 501.995 501.995;" xml:space="preserve">
<g>
	<g>
		<g>
			<path d="M466.789,283.248c-0.171-0.033-0.342-0.063-0.515-0.087l-70.498-10.088c-0.283-0.041-0.568-0.069-0.854-0.084
				c-10.81-0.61-21.762-0.475-32.555,0.4c-0.152,0.012-0.305,0.028-0.457,0.048l-152.112,19.407
				c-19.198,1.22-34.375,16.2-36.398,34.776L50.632,289.796c-20.61-6.35-42.545,5.253-48.894,25.862
				c-6.35,20.61,5.252,42.544,25.862,48.895c0.035,0.011,0.069,0.021,0.104,0.031l116.349,34.468
				c20.898,6.191,42.279,9.3,63.839,9.3c8.601,0,17.231-0.495,25.87-1.486l151.139-17.344c0.144-0.016,0.288-0.036,0.431-0.059
				c7.924-1.261,15.961-1.258,23.884,0.01l47.258,7.561c2.141,0.342,4.267,0.508,6.368,0.508
				c19.113-0.002,35.951-13.72,39.028-32.95c0.083-0.522,0.125-1.051,0.125-1.58v-40.84
				C501.996,302.736,488.176,287.457,466.789,283.248z M481.998,362.13h-0.002c-1.988,9.907-12.063,16.801-22.363,15.156
				l-47.257-7.561c-9.939-1.59-20.02-1.606-29.965-0.048l-150.929,17.32c-27.605,3.167-55.108,0.771-81.748-7.121l-116.29-34.451
				c-10.042-3.122-15.69-13.822-12.592-23.879c1.502-4.878,4.815-8.88,9.328-11.267c4.513-2.387,9.687-2.874,14.564-1.371
				l133.085,41.002c6.634,12.243,19.58,20.492,34.373,20.492c0.702,0,1.407-0.019,2.116-0.057c0.244-0.013,0.486-0.035,0.728-0.066
				l61.135-7.774c5.479-0.696,9.355-5.703,8.659-11.181c-0.697-5.479-5.71-9.361-11.181-8.659l-60.736,7.723
				c-10.241,0.378-18.884-7.408-19.722-17.518c-0.548-10.512,7.549-19.517,18.063-20.08c0.245-0.013,0.488-0.035,0.731-0.066
				l152.219-19.42c9.669-0.774,19.477-0.898,29.162-0.373l69.794,9.987c11.795,2.399,18.828,9.583,18.828,19.253V362.13z"/>
			<path d="M314.417,337.484l-13.586,1.728c-5.479,0.696-9.355,5.703-8.659,11.181c0.642,5.051,4.946,8.74,9.907,8.74
				c0.42,0,0.846-0.026,1.274-0.081l13.586-1.728c5.479-0.696,9.355-5.703,8.659-11.181
				C324.902,340.665,319.892,336.783,314.417,337.484z"/>
			<path d="M215.08,244.95c11.604-0.152,23.604-0.309,35.916-0.309c12.312,0,24.312,0.157,35.916,0.309
				c10.791,0.141,21.163,0.277,31.056,0.277c44.72,0,79.505-2.775,97.334-20.372c8.091-7.986,12.194-18.488,12.194-31.213
				c0-27.884-19.182-53.61-54.011-72.437c-32.883-17.774-76.384-27.563-122.489-27.563c-46.105,0-89.606,9.789-122.489,27.563
				c-34.83,18.827-54.011,44.552-54.011,72.437c0,12.726,4.103,23.227,12.194,31.213C108.463,246.344,155.511,245.728,215.08,244.95
				z M183.496,121.76v32.882c0,5.523,4.477,10,10,10c5.523,0,10-4.477,10-10v-37.069c12.757-2.156,26.175-3.48,40-3.833v17.902
				c0,5.523,4.477,10,10,10c5.523,0,10-4.477,10-10v-17.73c13.505,0.576,26.586,2.076,39,4.369v36.361c0,5.523,4.477,10,10,10
				s10-4.477,10-10v-31.834c50.013,13.529,85,40.537,85,70.834c0,7.379-1.984,12.775-6.243,16.979
				c-15.822,15.616-61.357,15.022-114.079,14.332c-11.669-0.153-23.735-0.311-36.178-0.311s-24.509,0.158-36.178,0.311
				c-52.72,0.689-98.257,1.285-114.079-14.332c-4.259-4.204-6.243-9.6-6.243-16.979C94.496,162.543,131.356,134.907,183.496,121.76z
				"/>
			<path d="M253.496,178.641c5.523,0,10-4.477,10-10v-5c0-5.523-4.477-10-10-10s-10,4.477-10,10v5
				C243.496,174.164,247.973,178.641,253.496,178.641z"/>
		</g>
	</g>
</g>
<g>
</g>
<g>
</g>
<g>
</g>
<g>
</g>
<g>
</g>
<g>
</g>
<g>
</g>
<g>
</g>
<g>
</g>
<g>
</g>
<g>
</g>
<g>
</g>
<g>
</g>
<g>
</g>
<g>
</g>
</svg>
