<svg id="Layer_1" data-name="Layer 1" xmlns="http://www.w3.org/2000/svg" xmlns:xlink="http://www.w3.org/1999/xlink" viewBox="0 0 291.14 348.34"><defs><linearGradient id="linear-gradient" x1="260.4" y1="40.96" x2="264.34" y2="102.27" gradientUnits="userSpaceOnUse"><stop offset="0.02" stop-color="#fff" stop-opacity="0"/><stop offset="0.39" stop-color="#fff" stop-opacity="0.39"/><stop offset="1" stop-color="#fff"/></linearGradient><linearGradient id="linear-gradient-2" x1="150.19" y1="215.22" x2="139.69" y2="355.98" gradientUnits="userSpaceOnUse"><stop offset="0.01"/><stop offset="0.83" stop-opacity="0.07"/><stop offset="1" stop-opacity="0"/></linearGradient><linearGradient id="linear-gradient-3" x1="195.88" y1="142.84" x2="216.9" y2="404.31" xlink:href="#linear-gradient-2"/><linearGradient id="linear-gradient-4" x1="178.32" y1="151.93" x2="161.97" y2="102.87" xlink:href="#linear-gradient-2"/><linearGradient id="linear-gradient-5" x1="310.71" y1="166.02" x2="203.84" y2="160.32" xlink:href="#linear-gradient-2"/><linearGradient id="linear-gradient-6" x1="264.7" y1="82.36" x2="221.78" y2="113.02" xlink:href="#linear-gradient-2"/><linearGradient id="linear-gradient-7" x1="208.7" y1="61.77" x2="207.39" y2="113.89" xlink:href="#linear-gradient-2"/><linearGradient id="linear-gradient-8" x1="199.44" y1="84.11" x2="207.32" y2="107.47" xlink:href="#linear-gradient-2"/><linearGradient id="linear-gradient-9" x1="255.26" y1="72.5" x2="264.02" y2="105.79" xlink:href="#linear-gradient"/><linearGradient id="linear-gradient-10" x1="259.56" y1="71.92" x2="268.06" y2="104.24" xlink:href="#linear-gradient"/><linearGradient id="linear-gradient-11" x1="175.68" y1="280.68" x2="185.32" y2="371.49" xlink:href="#linear-gradient-2"/><linearGradient id="linear-gradient-12" x1="217.06" y1="278.33" x2="226.69" y2="369.14" xlink:href="#linear-gradient-2"/><linearGradient id="linear-gradient-13" x1="202.28" y1="271.73" x2="201.85" y2="128.07" xlink:href="#linear-gradient-2"/></defs><title>Chef</title><path d="M132.74,343.49c21.65,8.74,45.72,7.74,69,6.6,29-1.41,60.4-3.82,82-23.62,19.55-17.92,26.3-45.79,34.48-71.32C333.29,208,356.77,160.41,349,111.46,344,80.28,326,51.88,301.48,32.78S246.14,3.66,215.33,2.57c-13.1-.46-26.69.76-38.21,7.17-8.08,4.5-14.68,11.3-21,18.18A496.45,496.45,0,0,0,89.33,120.7c-14.25,25.52-26.46,53-29.46,82.21C55,250,86.78,325,132.74,343.49Z" transform="translate(-59.38 -2.48)" fill="#e02041" opacity="0.18" style="isolation:isolate"/><path d="M236.44,89.31c0-6.81,2.17-13.63.94-20.32-1.32-7.23-6.5-14-4.93-21.21,1-4.48,4.41-8,7.7-11.16l6.33-6.18a8.17,8.17,0,0,1,2.42-1.85,8.31,8.31,0,0,1,3.1-.46q9.86-.18,19.71.2c5.44.2,11.57.88,14.93,5.16,3,3.88,2.69,9.38,1.63,14.19s-2.69,9.71-1.73,14.54c1.22,6.13,6.53,11.81,4.68,17.78-.8,2.61-2.88,4.65-3.86,7.2-.81,2.1-.92,4.59-2.52,6.17a8.63,8.63,0,0,1-4,1.84c-10.5,2.78-21,6.28-31.54,8.78C240.63,106.06,236.41,97.05,236.44,89.31Z" transform="translate(-59.38 -2.48)" fill="url(#linear-gradient)"/><ellipse cx="142.66" cy="316.15" rx="73.14" ry="13.26" fill="url(#linear-gradient-2)"/><path d="M192.8,302.59s1.58,10.35.73,11.53-5.82.78-8.88.11-3.8-4.64-3.8-4.64l-.21-3.26Z" transform="translate(-59.38 -2.48)" fill="#f7af81"/><path d="M234.22,299s2,12.66,1.32,13.76-5.37.93-8.1.6-3.08-7.25-3.08-7.25l-.46-2.83Z" transform="translate(-59.38 -2.48)" fill="#f7af81"/><path d="M193.76,54.77a8.12,8.12,0,0,0,.84,1.49c1.05,1.85.54,4.37,1.84,6.06.32-1.36,3-10.92,1.73-11.54-.3-.15-1.88,1.17-2.25,1.34C194.78,52.61,193.19,53,193.76,54.77Z" transform="translate(-59.38 -2.48)" fill="#7d3b3d"/><path d="M227.47,175.42l2.6,53.06,5,73.52s-2.87,3.44-11.13,3.55l-14.86-74.82-7-38-6,37.09-2.51,77.26s-5.83.12-13.41.8l-4.91-76.18,4.86-59Z" transform="translate(-59.38 -2.48)" fill="#e02041"/><path d="M227.47,175.42l2.6,53.06,5,73.52s-2.87,3.44-11.13,3.55l-14.86-74.82-7-38-6,37.09-2.51,77.26s-5.83.12-13.41.8l-4.91-76.18,4.86-59Z" transform="translate(-59.38 -2.48)" fill="url(#linear-gradient-3)"/><path d="M185.13,89.5l-4.55,25.15h0c-.41.27-13.45,9.12-15,11.16s-8.16,4.78-10.42,5.18-7.29-3.9-6.48-10.46,27-28.3,29.74-29.85S185.13,89.5,185.13,89.5Z" transform="translate(-59.38 -2.48)" fill="#fff"/><path d="M182.19,102.46l-1.61,12.19h0c-.41.27-13.45,9.12-15,11.16s-8.16,4.78-10.42,5.18-7.29-3.9-6.48-10.46l14-2Z" transform="translate(-59.38 -2.48)" fill="url(#linear-gradient-4)"/><path d="M236.2,204.66c0,.4-.39.75-1,1.05-4.29,2.06-21.25,1.67-31.72.61-1-.1-1.3-14.51-1.3-14.51s-3.68,13.89-4.52,13.72c-9.06-1.72-24.53-3.5-24.53-3.5a234.3,234.3,0,0,0,6.72-45.26c1.33-30.57-1.8-65.9-.81-66.7,1.79-1.44,19.11-6.82,19.11-6.82l18,1.56,2.21,1c3.8,1.68,11.28,5,12.42,6,.06,0,.1.22.14.51.12.9.18,2.93.21,5.84.07,6.8,0,18.39.06,31.64,0,1.4,0,2.82,0,4.26.08,9.52.27,19.71.65,29.47C232.56,181.73,236.3,203.29,236.2,204.66Z" transform="translate(-59.38 -2.48)" fill="#fff"/><path d="M236.2,204.66c0,.4-.39.75-1,1.05a136,136,0,0,1-13.6,1l2.34-13.14-2.63-68,6.72-9.34,3.12,13.58c0,10.71.22,22.51.67,33.73C232.56,181.73,236.3,203.29,236.2,204.66Z" transform="translate(-59.38 -2.48)" fill="url(#linear-gradient-5)"/><path d="M245.83,140.3c-1.69,2.5-5.32,3.18-8.1,2a11,11,0,0,1-5.76-6.64,9.65,9.65,0,0,0-.8-1.66c-1.39-2.38-3.62-4.89-3.72-7.32-.27-5.77-2.41-11.53-2.42-17.31,0-4.45,3-9.25,4.61-13.82a19.31,19.31,0,0,0,.89-3.3,1.37,1.37,0,0,1,.35,0c2.2.28,4.9,5.23,5.73,6.87a36.47,36.47,0,0,1,3,9.18c1.28,6.39,2.5,9.44,5,15.44.89,2.1,1.19,7.73,1.8,9.93A8,8,0,0,1,245.83,140.3Z" transform="translate(-59.38 -2.48)" fill="#fff"/><path d="M244.67,123.77l-4.75,6S236.86,121,236,116.84c-.78-3.68-3.27-14.21-4.9-18.72a13.39,13.39,0,0,0-.58-1.43,5,5,0,0,0-.87-1.12c-3.26-3.27-13.15-8.29-13.15-8.29l1.83-1.5c3.8,1.68,11.28,5,12.42,6,.06,0,.1.22.14.51,2.2.28,4.9,5.23,5.73,6.87a36.47,36.47,0,0,1,3,9.18C240.9,114.72,242.12,117.77,244.67,123.77Z" transform="translate(-59.38 -2.48)" fill="url(#linear-gradient-6)"/><path d="M216.69,71.65s-1.15,8.38-.23,11.48-3.34,12.39-9.65,13-7.28-10.16-7.4-11.42,1.73-2.07.81-5.17S215.72,67.92,216.69,71.65Z" transform="translate(-59.38 -2.48)" fill="#f7af81"/><path d="M200.22,79.5a16.69,16.69,0,0,1-.26,7.67c1.67,1.27,3.21,3.45,5,3.28,3.78-.34,9.18-8.79,11.19-14.69,0-.11.07-.22.1-.33.18-2.12.4-3.78.4-3.78C215.72,67.92,199.31,76.4,200.22,79.5Z" transform="translate(-59.38 -2.48)" fill="#f69771"/><path d="M241.79,131.48" transform="translate(-59.38 -2.48)" fill="none" stroke="#000" stroke-miterlimit="10" stroke-width="0.55"/><path d="M196.08,53.27s-1.43,16.47-.21,20.91,5,8.29,8.79,8.33,9.54-3.07,12.13-8.75,4-19.6,3.39-21.51-4.38-7.94-14.51-7.12C198.7,45.69,196.11,50.74,196.08,53.27Z" transform="translate(-59.38 -2.48)" fill="#f7af81"/><path d="M217.79,62.65s.29-3.85,2.93-2.81.11,8.26-1.1,9a3.57,3.57,0,0,1-1.83.71" transform="translate(-59.38 -2.48)" fill="#f7af81"/><path d="M159.35,127.07s5.87-1.59,3.82-10.46-9.46-35-9.46-35L147,87s-2.33,35.87,2.57,39A11.16,11.16,0,0,0,159.35,127.07Z" transform="translate(-59.38 -2.48)" fill="#f7af81"/><path d="M153.71,81.64s1-4.64.52-5.88-5.38-10.13-7.31-8.84-4.69,9.86-4.91,10.44S147,87,147,87Z" transform="translate(-59.38 -2.48)" fill="#f7af81"/><path d="M247.33,139.42,264,116.73l-.49-13.68-27.7,28.52a7,7,0,0,0,1.91,11l2.06.21A8.26,8.26,0,0,0,247.33,139.42Z" transform="translate(-59.38 -2.48)" fill="#f7af81"/><path d="M261.75,117.62a26.89,26.89,0,0,0,4.56-1.37c1.22-.65,5.1-14.5,4-15.42s-5.66-3.52-6.93-2.68-8.12,7.42-8.12,7.42S257.2,119,261.75,117.62Z" transform="translate(-59.38 -2.48)" fill="#f7af81"/><path d="M198.16,83.25,199.85,82s2,10.15,5.62,11.17c0,0,5.77,2.26,10.73-11L218.1,86s-3.51,8.32-5.4,9.2-7.36,6.18-12.27-.88C198.1,90.93,198.16,83.25,198.16,83.25Z" transform="translate(-59.38 -2.48)" fill="#e02041"/><path d="M198.16,83.25,199.85,82s2,10.15,5.62,11.17c0,0,5.77,2.26,10.73-11L218.1,86s-3.51,8.32-5.4,9.2-7.36,6.18-12.27-.88C198.1,90.93,198.16,83.25,198.16,83.25Z" transform="translate(-59.38 -2.48)" fill="url(#linear-gradient-7)"/><path d="M156.81,71.22a12.44,12.44,0,0,0,2.39-2.9.73.73,0,0,0,.08-.55.64.64,0,0,0-.27-.27,2.83,2.83,0,0,0-2.79,0,4.39,4.39,0,0,0-1.88,2.17,3.35,3.35,0,0,1-.58,1.07,2.62,2.62,0,0,1-2.33.39.94.94,0,0,0-.6,0c-.31.16-.35.58-.32.93.09,1.09,1.47,4.8,3.07,4.52.66-.12,1-2,1.27-2.53A12.61,12.61,0,0,1,156.81,71.22Z" transform="translate(-59.38 -2.48)" fill="#f7af81"/><path d="M195.91,52s14-4.76,24.69,6.63l1.15-15.17a18.68,18.68,0,0,0,5.11-1.24c3.21-1.17,5-8.17.87-9.34a8.6,8.6,0,0,0-7.3,1.46s3.51-7.3-5.91-7.3c0,0-4.6.87-5.47,3.94,0,0-3.07-6.35-8.32-3.94s-4.6,5.25-4.6,5.25-3.73-1.53-4.82.44-1.57,5.07,2,5.48c5.69.65,4.53,1.82,4.53,1.82Z" transform="translate(-59.38 -2.48)" fill="#fff"/><path d="M216.65,66.1A26.34,26.34,0,0,0,220,59.7a2.69,2.69,0,0,0,1.39,1.17,1.4,1.4,0,0,0,1.62-.55,1.38,1.38,0,0,0-.26-1.55,2.52,2.52,0,0,0-1.47-.73.78.78,0,0,1-.43-.17c-.26-.28,0-.77-.15-1.09a.86.86,0,0,0-.47-.28c-.91-.3-2.33-1-3.21-1.2-.46,1.47.55,3.6.44,5.21A39,39,0,0,1,216.65,66.1Z" transform="translate(-59.38 -2.48)" fill="#7d3b3d"/><path d="M218.53,74.77a5,5,0,0,1-.27,1.26,5.17,5.17,0,0,1-1.81,2,.87.87,0,0,1-.37.19.57.57,0,0,1-.56-.5,1.53,1.53,0,0,1,.14-.81l1.94-5.5a7.76,7.76,0,0,0,.36-1.25,1.89,1.89,0,0,1,.14-.58c.14-.27.63-.66,1-.48s.06,1.2,0,1.54Z" transform="translate(-59.38 -2.48)" fill="#7d3b3d"/><polygon points="175.02 107.91 235.22 93.97 225.17 93.3 181.58 103.71 175.02 107.91" fill="#e02041"/><polygon points="175.02 107.91 235.22 93.97 225.17 93.3 181.58 103.71 175.02 107.91" fill="url(#linear-gradient-8)"/><path d="M241,106.2S236.22,84.79,255,80.71c23.21-5,29.51,15.08,29.51,15.08Z" transform="translate(-59.38 -2.48)" fill="#e02041"/><path d="M284.55,95.79,241,106.2S236.22,84.79,255,80.71c1.11-.24,2.18-.42,3.21-.55,19-2.42,25.31,12.87,26.19,15.3Z" transform="translate(-59.38 -2.48)" fill="url(#linear-gradient-9)"/><path d="M284.43,95.46l-35.14,8.4s-3.82-17.21,9-23.7C277.2,77.74,283.55,93,284.43,95.46Z" transform="translate(-59.38 -2.48)" fill="url(#linear-gradient-10)"/><circle cx="194.93" cy="76.47" r="2.04" fill="#e02041"/><path d="M167.05,313.28c-1.74.66-3.58,1.68-3.58,3.91a4,4,0,0,0,.86,2.43c2.13,2.86,6.07,3,9.53,2.86a116,116,0,0,0,19.19-2.6,2.62,2.62,0,0,0,1.19-.49,2.42,2.42,0,0,0,.6-1.34,19.32,19.32,0,0,0,.2-6.61,1.16,1.16,0,0,0-1.87-.75,6.47,6.47,0,0,1-4.47,1.46c-3.85-.25-5.32-3.62-9.25-2.47C175.36,310.87,171,311.76,167.05,313.28Z" transform="translate(-59.38 -2.48)" fill="#e02041"/><path d="M208.55,312.08c-1.74.66-3.58,1.68-3.59,3.9a4.1,4.1,0,0,0,.87,2.44c2.12,2.86,6.07,3,9.53,2.85a116,116,0,0,0,19.19-2.6,2.52,2.52,0,0,0,1.19-.49,2.36,2.36,0,0,0,.6-1.34,19.46,19.46,0,0,0,.19-6.68,1.12,1.12,0,0,0-1.81-.72A6.46,6.46,0,0,1,230.2,311c-3.85-.26-5.33-3.62-9.25-2.48C216.86,309.67,212.54,310.56,208.55,312.08Z" transform="translate(-59.38 -2.48)" fill="#e02041"/><path d="M167.05,313.28c-1.74.66-3.58,1.68-3.58,3.91a4,4,0,0,0,.86,2.43c2.13,2.86,6.07,3,9.53,2.86a116,116,0,0,0,19.19-2.6,2.62,2.62,0,0,0,1.19-.49,2.42,2.42,0,0,0,.6-1.34,19.32,19.32,0,0,0,.2-6.61,1.16,1.16,0,0,0-1.87-.75,6.47,6.47,0,0,1-4.47,1.46c-3.85-.25-5.32-3.62-9.25-2.47C175.36,310.87,171,311.76,167.05,313.28Z" transform="translate(-59.38 -2.48)" fill="url(#linear-gradient-11)"/><path d="M208.55,312.08c-1.74.66-3.58,1.68-3.59,3.9a4.1,4.1,0,0,0,.87,2.44c2.12,2.86,6.07,3,9.53,2.85a116,116,0,0,0,19.19-2.6,2.52,2.52,0,0,0,1.19-.49,2.36,2.36,0,0,0,.6-1.34,19.46,19.46,0,0,0,.19-6.68,1.12,1.12,0,0,0-1.81-.72A6.46,6.46,0,0,1,230.2,311c-3.85-.26-5.33-3.62-9.25-2.48C216.86,309.67,212.54,310.56,208.55,312.08Z" transform="translate(-59.38 -2.48)" fill="url(#linear-gradient-12)"/><circle cx="141.57" cy="104.72" r="1.24" fill="#e02041"/><circle cx="139.16" cy="121" r="1.24" fill="#e02041"/><circle cx="138.72" cy="140.56" r="1.24" fill="#e02041"/><circle cx="139.45" cy="156.69" r="1.24" fill="#e02041"/><circle cx="139.74" cy="180.78" r="1.24" fill="#e02041"/><path d="M227.48,162.83a9.12,9.12,0,0,1,4.35.59c1.33.67,2.32,2.26,1.78,3.64a8.06,8.06,0,0,1-1.42,1.9c-1.36,1.77-1.41,4.18-1.39,6.42l.48,65.63c0,2.24-.22,4.93-2.2,6a6.08,6.08,0,0,1-2.84.49q-25.25.32-50.49.53c-1.75,0-3.82-.14-4.71-1.65a5,5,0,0,1-.49-2.39,303.78,303.78,0,0,1,7.31-77.46,5.24,5.24,0,0,1,1.19-2.69c1-1,6.58.21,8.08.18,4.55-.08,9.09-.26,13.63-.39Z" transform="translate(-59.38 -2.48)" fill="#e02041"/><path d="M227.48,162.83a9.12,9.12,0,0,1,4.35.59c1.33.67,2.32,2.26,1.78,3.64a8.06,8.06,0,0,1-1.42,1.9c-1.36,1.77-1.41,4.18-1.39,6.42l.48,65.63c0,2.24-.22,4.93-2.2,6a6.08,6.08,0,0,1-2.84.49q-25.25.32-50.49.53c-1.75,0-3.82-.14-4.71-1.65a5,5,0,0,1-.49-2.39,303.78,303.78,0,0,1,7.31-77.46,5.24,5.24,0,0,1,1.19-2.69c1-1,6.58.21,8.08.18,4.55-.08,9.09-.26,13.63-.39Z" transform="translate(-59.38 -2.48)" fill="url(#linear-gradient-13)"/></svg>